<svg xmlns="http://www.w3.org/2000/svg" viewBox="65 90 275 275">
  <defs>
    <linearGradient id="body" x1="0" y1="0" x2="1" y2="1">
      <stop stop-color="#eee" />
      <stop offset=".55" stop-color="#eee" />
      <stop offset="1" stop-color="#ddd" />
    </linearGradient>
    <linearGradient id="pink" x1="0" x2="1" y2="1">
      <stop stop-color="#cb2957" />
      <stop offset="1" stop-color="#cb2957" stop-opacity=".65" />
    </linearGradient>
    <filter id="shadow" x="-50%" y="-50%" width="200%" height="200%">
      <feGaussianBlur stdDeviation="9" />
    </filter>
  </defs>
  <ellipse cx="207" cy="348" rx="93" ry="13" fill="#000" opacity=".09" filter="url(#shadow)" />
  <path d="M126 224q-56-21-56 21t55 35" fill="url(#body)" stroke="#000" stroke-opacity=".08" />
  <path d="M279 214q59-40 54-3t-50 66" fill="url(#body)" stroke="#000" stroke-opacity=".08" />
  <rect x="143" y="313" width="40" height="24" rx="11" fill="#000" opacity=".8" />
  <rect x="231" y="313" width="40" height="24" rx="11" fill="#000" opacity=".8" />
  <path d="M118 120Q119 94 148 98L274 116Q293 120 293 148V298Q293 330 263 327L141 310Q118 305 118 281Z" fill="url(#pink)" />
  <path d="M130 116Q130 99 151 104L263 119Q282 121 282 143V292Q282 314 261 313L148 299Q130 297 130 277Z" fill="#ddd" />
  <path d="M140 117l120 17m-119-9 119 16m-119-8 119 16" fill="none" stroke="#000" stroke-opacity=".11" stroke-width="2" />
  <path d="M131 133Q131 112 156 116L275 133Q300 137 299 165L296 299Q296 323 271 321L151 306Q129 302 130 280Z" fill="url(#body)" stroke="#000" stroke-opacity=".06" />
  <path d="M245 121v57l16-11 13 14v-56" fill="#cb2957" />
  <rect x="147" y="168" width="133" height="82" rx="30" transform="rotate(6 210 208)" fill="#000" />
  <rect x="168" y="193" width="24" height="24" rx="10" transform="rotate(6 180 205)" fill="#cb2957" />
  <rect x="234" y="199" width="24" height="24" rx="10" transform="rotate(6 246 211)" fill="#cb2957" />
  <path d="M204 223q8 8 16 1" fill="none" stroke="#eee" stroke-width="4" stroke-linecap="round" />
  <path d="M198 267q8-4 15 2 8-4 15 2v18q-8-5-15-1-8-6-15-3Z" fill="none" stroke="#cb2957" stroke-width="3" stroke-linejoin="round" />
  <path d="M213 269v19" stroke="#cb2957" stroke-width="3" />
</svg>
